<?xml version="1.0" encoding="utf-8"?>
<!-- Generator: Adobe Illustrator 26.3.1, SVG Export Plug-In . SVG Version: 6.00 Build 0)  -->
<svg version="1.1" id="Layer_1" xmlns="http://www.w3.org/2000/svg" xmlns:xlink="http://www.w3.org/1999/xlink" x="0px" y="0px"
	 viewBox="0 0 432.1 106.7" style="enable-background:new 0 0 432.1 106.7;" xml:space="preserve">
<style type="text/css">
	.st0{fill:#1A88F0;}
	.st1{fill:#0065AA;}
	.st2{fill:#FFFFFF;}
</style>
<g>
	<g>
		<rect class="st0" width="432.1" height="106.7"/>
	</g>
	<rect x="250.2" class="st1" width="181.9" height="106.7"/>
	<g>
		<polygon class="st2" points="64.6,69.6 33.4,21.3 28.9,21.3 19.3,85.5 27.1,85.5 34.3,36.7 65.8,85.5 70.1,85.5 79.7,21.3
			71.7,21.3 		"/>
		<polygon class="st2" points="92.8,56.2 118.3,56.2 119.4,49 94,49 97,28.4 124,28.4 125.1,21.3 90.5,21.3 80.9,85.5 124.8,85.5
			126,78.1 89.6,78.1 		"/>
		<polygon class="st2" points="201.9,21.3 180.4,69.4 171,21.3 164.6,21.3 142.7,69.4 133.4,21.3 125.9,21.3 138.6,86.6 143,86.6
			166.2,34.9 176.2,86.6 180.6,86.6 210,21.3 		"/>
		<path class="st2" d="M225.6,27.6c1.3,0,2.6,0.2,4.1,0.7c1.5,0.5,3.1,1.2,4.9,2.1l1.7,0.9l2.5-6.9l-1.3-0.7c-2.2-1.1-4.2-2-6.1-2.5
			c-1.9-0.5-3.7-0.8-5.5-0.8c-5.3,0-9.8,1.6-13.3,4.8c-3.6,3.2-5.4,7.3-5.4,12c0,2.9,0.8,5.6,2.4,8.2c1.5,2.5,4.7,5.9,9.6,10.4
			l0.5,0.5c5.4,4.9,8.1,9.1,8.1,12.3c0,3-1,5.5-3.1,7.5c-3.1,3-7.3,4-12.5,2.2c-1.7-0.6-3.6-1.5-5.5-2.7l-1.7-1.1l-2.8,7.1l1.2,0.8
			c2.3,1.4,4.5,2.5,6.8,3.2c2.3,0.7,4.6,1.1,6.8,1.1c5.6,0,10.1-1.8,13.7-5.4c3.5-3.6,5.3-8.3,5.3-13.9c0-2.7-0.8-5.3-2.2-7.7
			c-1.4-2.3-4.2-5.3-8.6-9.1c-0.4-0.4-1-0.9-1.9-1.6c-6.7-5.8-8.1-9.4-8.1-11.4c0-2.9,1-5.2,2.9-7.1C220,28.5,222.5,27.6,225.6,27.6
			z"/>
	</g>
	<g>
		<path class="st2" d="M264.9,22H279v24.3h15V22h14.2v61.8h-14.2V57.6h-15v26.3h-14.2V22z"/>
		<path class="st2" d="M320.2,22h14.3v39.5c0,4.8,0.6,8.2,1.9,10c1.2,1.9,3.4,2.8,6.4,2.8c3.1,0,5.2-0.9,6.5-2.8
			c1.3-1.9,1.9-5.2,1.9-10V22h13.5V60c0,8.5-1.8,14.7-5.5,18.8c-3.6,4.1-9.2,6.1-16.8,6.1c-7.5,0-13.1-2-16.7-6.1
			c-3.6-4-5.4-10.3-5.4-18.8V22z"/>
		<path class="st2" d="M376.5,22h19c6.9,0,12,1.3,15.3,3.8c3.3,2.6,5,6.5,5,11.8c0,3.8-1,6.9-2.9,9.3c-1.9,2.4-4.7,4-8.3,4.7
			c4.2,0.8,7.4,2.4,9.5,4.9c2.1,2.5,3.1,6,3.1,10.4c0,5.7-1.8,10-5.4,12.7c-3.6,2.7-9.2,4.1-16.9,4.1h-18.4V22z M390.1,32.3v15h3.2
			c3.1,0,5.4-0.6,6.8-1.7c1.4-1.2,2.1-3,2.1-5.7c0-2.7-0.7-4.6-2.1-5.8c-1.4-1.2-3.8-1.8-7-1.8H390.1z M390.1,57v16.4h3.4
			c3.5,0,6-0.6,7.6-1.9c1.6-1.3,2.3-3.3,2.3-6.2c0-3-0.8-5.1-2.3-6.4c-1.5-1.3-4.1-2-7.6-2H390.1z"/>
	</g>
</g>
</svg>
